<mxfile host="Electron" modified="2024-04-27T07:23:31.306Z" agent="Mozilla/5.0 (Macintosh; Intel Mac OS X 10_15_7) AppleWebKit/537.36 (KHTML, like Gecko) draw.io/24.2.5 Chrome/120.0.6099.109 Electron/28.1.0 Safari/537.36" etag="piLBY0ClXCyEDwMSkbbs" version="24.2.5" type="device">
  <diagram name="第 1 页" id="p-xIimWPH4GRsrt9Qe-O">
    <mxGraphModel dx="794" dy="627" grid="1" gridSize="10" guides="1" tooltips="1" connect="1" arrows="1" fold="1" page="1" pageScale="1" pageWidth="827" pageHeight="1169" math="0" shadow="0">
      <root>
        <mxCell id="0" />
        <mxCell id="1" parent="0" />
        <mxCell id="lRyW9z5enqx_A9bZn4cr-1" value="10" style="ellipse;whiteSpace=wrap;html=1;aspect=fixed;" parent="1" vertex="1">
          <mxGeometry x="275" y="130" width="50" height="50" as="geometry" />
        </mxCell>
        <mxCell id="lRyW9z5enqx_A9bZn4cr-2" value="2-3-4树" style="text;html=1;align=center;verticalAlign=middle;resizable=0;points=[];autosize=1;strokeColor=none;fillColor=none;" parent="1" vertex="1">
          <mxGeometry x="270" y="38" width="60" height="30" as="geometry" />
        </mxCell>
        <mxCell id="lRyW9z5enqx_A9bZn4cr-3" value="二叉树" style="text;html=1;align=center;verticalAlign=middle;resizable=0;points=[];autosize=1;strokeColor=none;fillColor=none;" parent="1" vertex="1">
          <mxGeometry x="660" y="38" width="60" height="30" as="geometry" />
        </mxCell>
        <mxCell id="lRyW9z5enqx_A9bZn4cr-4" value="10" style="ellipse;whiteSpace=wrap;html=1;aspect=fixed;" parent="1" vertex="1">
          <mxGeometry x="665" y="130" width="50" height="50" as="geometry" />
        </mxCell>
        <mxCell id="lRyW9z5enqx_A9bZn4cr-5" value="2节点" style="text;html=1;align=center;verticalAlign=middle;whiteSpace=wrap;rounded=0;" parent="1" vertex="1">
          <mxGeometry x="50" y="150" width="60" height="30" as="geometry" />
        </mxCell>
        <mxCell id="lRyW9z5enqx_A9bZn4cr-7" value="10" style="ellipse;whiteSpace=wrap;html=1;aspect=fixed;" parent="1" vertex="1">
          <mxGeometry x="300" y="310" width="50" height="50" as="geometry" />
        </mxCell>
        <mxCell id="lRyW9z5enqx_A9bZn4cr-8" value="8" style="ellipse;whiteSpace=wrap;html=1;aspect=fixed;" parent="1" vertex="1">
          <mxGeometry x="250" y="310" width="50" height="50" as="geometry" />
        </mxCell>
        <mxCell id="lRyW9z5enqx_A9bZn4cr-9" value="10" style="ellipse;whiteSpace=wrap;html=1;aspect=fixed;" parent="1" vertex="1">
          <mxGeometry x="615" y="380" width="50" height="50" as="geometry" />
        </mxCell>
        <mxCell id="lRyW9z5enqx_A9bZn4cr-10" value="8" style="ellipse;whiteSpace=wrap;html=1;aspect=fixed;" parent="1" vertex="1">
          <mxGeometry x="565" y="310" width="50" height="50" as="geometry" />
        </mxCell>
        <mxCell id="lRyW9z5enqx_A9bZn4cr-11" value="10" style="ellipse;whiteSpace=wrap;html=1;aspect=fixed;" parent="1" vertex="1">
          <mxGeometry x="790" y="310" width="50" height="50" as="geometry" />
        </mxCell>
        <mxCell id="lRyW9z5enqx_A9bZn4cr-12" value="8" style="ellipse;whiteSpace=wrap;html=1;aspect=fixed;" parent="1" vertex="1">
          <mxGeometry x="740" y="380" width="50" height="50" as="geometry" />
        </mxCell>
        <mxCell id="lRyW9z5enqx_A9bZn4cr-14" value="" style="endArrow=classic;html=1;rounded=0;exitX=1;exitY=1;exitDx=0;exitDy=0;" parent="1" source="lRyW9z5enqx_A9bZn4cr-10" target="lRyW9z5enqx_A9bZn4cr-9" edge="1">
          <mxGeometry width="50" height="50" relative="1" as="geometry">
            <mxPoint x="530" y="300" as="sourcePoint" />
            <mxPoint x="580" y="250" as="targetPoint" />
          </mxGeometry>
        </mxCell>
        <mxCell id="lRyW9z5enqx_A9bZn4cr-15" value="" style="endArrow=classic;html=1;rounded=0;exitX=0;exitY=1;exitDx=0;exitDy=0;" parent="1" source="lRyW9z5enqx_A9bZn4cr-11" target="lRyW9z5enqx_A9bZn4cr-12" edge="1">
          <mxGeometry width="50" height="50" relative="1" as="geometry">
            <mxPoint x="618" y="363" as="sourcePoint" />
            <mxPoint x="637" y="394" as="targetPoint" />
          </mxGeometry>
        </mxCell>
        <mxCell id="lRyW9z5enqx_A9bZn4cr-16" value="3节点" style="text;html=1;align=center;verticalAlign=middle;resizable=0;points=[];autosize=1;strokeColor=none;fillColor=none;" parent="1" vertex="1">
          <mxGeometry x="55" y="320" width="50" height="30" as="geometry" />
        </mxCell>
        <mxCell id="lRyW9z5enqx_A9bZn4cr-17" value="10" style="ellipse;whiteSpace=wrap;html=1;aspect=fixed;" parent="1" vertex="1">
          <mxGeometry x="325" y="510" width="50" height="50" as="geometry" />
        </mxCell>
        <mxCell id="lRyW9z5enqx_A9bZn4cr-18" value="8" style="ellipse;whiteSpace=wrap;html=1;aspect=fixed;" parent="1" vertex="1">
          <mxGeometry x="275" y="510" width="50" height="50" as="geometry" />
        </mxCell>
        <mxCell id="lRyW9z5enqx_A9bZn4cr-19" value="6" style="ellipse;whiteSpace=wrap;html=1;aspect=fixed;" parent="1" vertex="1">
          <mxGeometry x="225" y="510" width="50" height="50" as="geometry" />
        </mxCell>
        <mxCell id="lRyW9z5enqx_A9bZn4cr-20" value="10" style="ellipse;whiteSpace=wrap;html=1;aspect=fixed;" parent="1" vertex="1">
          <mxGeometry x="730" y="570" width="50" height="50" as="geometry" />
        </mxCell>
        <mxCell id="lRyW9z5enqx_A9bZn4cr-21" value="8" style="ellipse;whiteSpace=wrap;html=1;aspect=fixed;" parent="1" vertex="1">
          <mxGeometry x="680" y="500" width="50" height="50" as="geometry" />
        </mxCell>
        <mxCell id="lRyW9z5enqx_A9bZn4cr-22" value="6" style="ellipse;whiteSpace=wrap;html=1;aspect=fixed;" parent="1" vertex="1">
          <mxGeometry x="630" y="570" width="50" height="50" as="geometry" />
        </mxCell>
        <mxCell id="lRyW9z5enqx_A9bZn4cr-26" value="" style="endArrow=classic;html=1;rounded=0;exitX=0;exitY=1;exitDx=0;exitDy=0;entryX=0.5;entryY=0;entryDx=0;entryDy=0;" parent="1" source="lRyW9z5enqx_A9bZn4cr-21" target="lRyW9z5enqx_A9bZn4cr-22" edge="1">
          <mxGeometry width="50" height="50" relative="1" as="geometry">
            <mxPoint x="600" y="470" as="sourcePoint" />
            <mxPoint x="650" y="420" as="targetPoint" />
          </mxGeometry>
        </mxCell>
        <mxCell id="lRyW9z5enqx_A9bZn4cr-30" value="" style="endArrow=classic;html=1;rounded=0;exitX=1;exitY=1;exitDx=0;exitDy=0;entryX=0.24;entryY=0;entryDx=0;entryDy=0;entryPerimeter=0;" parent="1" source="lRyW9z5enqx_A9bZn4cr-21" target="lRyW9z5enqx_A9bZn4cr-20" edge="1">
          <mxGeometry width="50" height="50" relative="1" as="geometry">
            <mxPoint x="700" y="600" as="sourcePoint" />
            <mxPoint x="750" y="550" as="targetPoint" />
          </mxGeometry>
        </mxCell>
        <mxCell id="lRyW9z5enqx_A9bZn4cr-31" value="4节点" style="text;html=1;align=center;verticalAlign=middle;resizable=0;points=[];autosize=1;strokeColor=none;fillColor=none;" parent="1" vertex="1">
          <mxGeometry x="60" y="518" width="50" height="30" as="geometry" />
        </mxCell>
      </root>
    </mxGraphModel>
  </diagram>
</mxfile>
